<?xml version="1.0" encoding="UTF-8"?>
<svg id="Layer_1" xmlns="http://www.w3.org/2000/svg" version="1.1" viewBox="0 0 1024 1024">
  <!-- Generator: Adobe Illustrator 30.5.1, SVG Export Plug-In . SVG Version: 2.1.4 Build 3)  -->
  <defs>
    <style>
      .st0 {
        opacity: .85;
      }

      .st0, .st1 {
        isolation: isolate;
      }

      .st2 {
        fill: #fff;
      }

      .st3 {
        fill: #1e1e28;
      }
    </style>
  </defs>
  <rect class="st3" x="0" width="1024" height="1024" rx="180" ry="180"/>
  <g class="st1">
    <g class="st1">
      <g class="st1">
        <path class="st2" d="M435.32,180.6c27.24,0,51.79,4.8,73.64,14.39,21.84,9.6,40.57,22.74,56.19,39.45,15.6,16.71,27.52,36.06,35.76,58.02,8.22,21.97,12.34,45.65,12.34,71.01,0,38.99-7.53,72.72-22.56,101.18-15.04,28.47-39.59,50.13-73.64,64.98v1.86c16.46,4.96,30.08,12.53,40.87,22.74,10.78,10.21,19.58,22.28,26.39,36.2,6.81,13.92,11.77,29.24,14.9,45.95,3.11,16.71,5.24,33.42,6.39,50.13.56,10.53,1.13,22.9,1.7,37.13.56,14.24,1.56,28.78,2.98,43.63,1.41,14.85,3.68,28.94,6.81,42.24,3.11,13.32,7.79,24.6,14.05,33.88h-133.66c-7.38-21.03-11.92-46.09-13.62-75.19-1.7-29.08-4.26-56.93-7.66-83.55-4.55-34.65-14.19-60.02-28.95-76.12-14.77-16.09-38.88-24.14-72.37-24.14h-133.67v258.99H107.54V180.6h327.78ZM387.65,480.44c30.65,0,53.64-7.43,68.96-22.28,15.32-14.85,22.99-38.99,22.99-72.41s-7.66-55.54-22.99-70.08c-15.32-14.53-38.31-21.81-68.96-21.81h-146.44v186.58h146.44Z"/>
      </g>
    </g>
  </g>
  <g class="st0">
    <g class="st1">
      <g class="st1">
        <path class="st2" d="M681.73,843.4v-324.07h65.9v49.13c16.81-22.99,32.34-38.14,46.58-45.47,14.24-7.32,29.9-10.99,46.99-10.99,24.68,0,49.77,5.9,75.26,17.7l-25.22,50.96c-17.9-7.93-35.8-11.9-53.7-11.9-16.01,0-30.38,3.62-43.12,10.83-12.75,7.22-21.84,17.24-27.26,30.06-8.14,19.53-12.21,40.89-12.21,64.08v169.66h-73.23Z"/>
      </g>
    </g>
  </g>
</svg>